<svg xmlns="http://www.w3.org/2000/svg" viewBox="0 0 400 240" width="400" height="240" fill="none">
  <defs>
    <radialGradient id="bgGlow" cx="50%" cy="50%" r="65%">
      <stop offset="0%" stop-color="#f59e0b" stop-opacity="0.2" />
      <stop offset="100%" stop-color="#0f1115" stop-opacity="0" />
    </radialGradient>
    <linearGradient id="borderGrad" x1="0%" y1="0%" x2="100%" y2="100%">
      <stop offset="0%" stop-color="#f59e0b" stop-opacity="0.6" />
      <stop offset="50%" stop-color="rgba(255,255,255,0.08)" />
      <stop offset="100%" stop-color="#f97316" stop-opacity="0.35" />
    </linearGradient>
    <linearGradient id="accentGrad" x1="0%" y1="0%" x2="100%" y2="100%">
      <stop offset="0%" stop-color="#f59e0b" />
      <stop offset="100%" stop-color="#f97316" />
    </linearGradient>
    <filter id="glow" x="-20%" y="-20%" width="140%" height="140%">
      <feGaussianBlur stdDeviation="3.5" result="b" />
      <feComposite in="SourceGraphic" in2="b" operator="over" />
    </filter>
  </defs>

  <rect width="400" height="240" rx="16" fill="#080e1c" />
  <rect width="400" height="240" rx="16" fill="url(#bgGlow)" />
  <rect x="0.5" y="0.5" width="399" height="239" rx="15.5" stroke="url(#borderGrad)" stroke-width="1" />

  <!-- Technical Grid Background -->
  <g stroke="rgba(255,255,255,0.03)" stroke-width="1">
    <line x1="50" y1="0" x2="50" y2="240" />
    <line x1="120" y1="0" x2="120" y2="240" />
    <line x1="200" y1="0" x2="200" y2="240" />
    <line x1="280" y1="0" x2="280" y2="240" />
    <line x1="350" y1="0" x2="350" y2="240" />
    <line x1="0" y1="60" x2="400" y2="60" />
    <line x1="0" y1="120" x2="400" y2="120" />
    <line x1="0" y1="180" x2="400" y2="180" />
  </g>

  <!-- Ambient Light Beam -->
  <circle cx="200" cy="120" r="85" fill="#f59e0b" opacity="0.06" />

  
    <g transform="translate(130, 30)">
      <rect x="10" y="10" width="120" height="155" rx="10" fill="#1b1e26" stroke="url(#accentGrad)" stroke-width="2.5" />
      <circle cx="70" cy="45" r="18" fill="rgba(245,158,11,0.2)" stroke="#f59e0b" stroke-width="2" />
      <path d="M72 35 L62 47 H72 L68 57 L80 44 H70 Z" fill="#f59e0b" />
      <line x1="30" y1="80" x2="110" y2="80" stroke="#ffffff" stroke-width="2" />
      <line x1="30" y1="95" x2="90" y2="95" stroke="#94a3b8" stroke-width="2" />
      <line x1="30" y1="110" x2="100" y2="110" stroke="#94a3b8" stroke-width="2" />
      <rect x="30" y="128" width="80" height="20" rx="5" fill="#10b981" />
      <text x="70" y="142" font-family="sans-serif" font-weight="800" font-size="10" fill="#000000" text-anchor="middle">PAID ✓</text>
    </g>
</svg>