<svg xmlns="http://www.w3.org/2000/svg" viewBox="0 0 400 240" width="400" height="240" fill="none">
  <defs>
    <radialGradient id="bgGlow" cx="50%" cy="50%" r="65%">
      <stop offset="0%" stop-color="#8b5cf6" stop-opacity="0.2" />
      <stop offset="100%" stop-color="#060913" stop-opacity="0" />
    </radialGradient>
    <linearGradient id="borderGrad" x1="0%" y1="0%" x2="100%" y2="100%">
      <stop offset="0%" stop-color="#8b5cf6" stop-opacity="0.6" />
      <stop offset="50%" stop-color="rgba(255,255,255,0.08)" />
      <stop offset="100%" stop-color="#ec4899" stop-opacity="0.35" />
    </linearGradient>
    <linearGradient id="accentGrad" x1="0%" y1="0%" x2="100%" y2="100%">
      <stop offset="0%" stop-color="#8b5cf6" />
      <stop offset="100%" stop-color="#ec4899" />
    </linearGradient>
    <filter id="glow" x="-20%" y="-20%" width="140%" height="140%">
      <feGaussianBlur stdDeviation="3.5" result="b" />
      <feComposite in="SourceGraphic" in2="b" operator="over" />
    </filter>
  </defs>

  <rect width="400" height="240" rx="16" fill="#080e1c" />
  <rect width="400" height="240" rx="16" fill="url(#bgGlow)" />
  <rect x="0.5" y="0.5" width="399" height="239" rx="15.5" stroke="url(#borderGrad)" stroke-width="1" />

  <!-- Technical Grid Background -->
  <g stroke="rgba(255,255,255,0.03)" stroke-width="1">
    <line x1="50" y1="0" x2="50" y2="240" />
    <line x1="120" y1="0" x2="120" y2="240" />
    <line x1="200" y1="0" x2="200" y2="240" />
    <line x1="280" y1="0" x2="280" y2="240" />
    <line x1="350" y1="0" x2="350" y2="240" />
    <line x1="0" y1="60" x2="400" y2="60" />
    <line x1="0" y1="120" x2="400" y2="120" />
    <line x1="0" y1="180" x2="400" y2="180" />
  </g>

  <!-- Ambient Light Beam -->
  <circle cx="200" cy="120" r="85" fill="#8b5cf6" opacity="0.06" />

  
    <g transform="translate(115, 45)">
      <rect x="0" y="0" width="170" height="105" rx="14" fill="#0f172a" stroke="url(#accentGrad)" stroke-width="2.5" filter="url(#glow)" />
      <rect x="20" y="30" width="28" height="22" rx="4" fill="#f59e0b" />
      <path d="M58 35 C62 38 62 44 58 47" fill="none" stroke="#ffffff" stroke-width="2" />
      <path d="M63 32 C69 37 69 47 63 52" fill="none" stroke="#ffffff" stroke-width="2" />
      <text x="20" y="78" font-family="monospace" font-size="13" font-weight="700" fill="#ffffff" letter-spacing="2">•••• 8918</text>
      <circle cx="130" cy="80" r="12" fill="#ec4899" opacity="0.8" />
      <circle cx="145" cy="80" r="12" fill="#8b5cf6" opacity="0.8" />
    </g>
</svg>