<svg xmlns="http://www.w3.org/2000/svg" viewBox="0 0 400 240" width="400" height="240" fill="none">
  <defs>
    <radialGradient id="bgGlow" cx="50%" cy="50%" r="65%">
      <stop offset="0%" stop-color="#ef4444" stop-opacity="0.2" />
      <stop offset="100%" stop-color="#0f1115" stop-opacity="0" />
    </radialGradient>
    <linearGradient id="borderGrad" x1="0%" y1="0%" x2="100%" y2="100%">
      <stop offset="0%" stop-color="#ef4444" stop-opacity="0.6" />
      <stop offset="50%" stop-color="rgba(255,255,255,0.08)" />
      <stop offset="100%" stop-color="#f59e0b" stop-opacity="0.35" />
    </linearGradient>
    <linearGradient id="accentGrad" x1="0%" y1="0%" x2="100%" y2="100%">
      <stop offset="0%" stop-color="#ef4444" />
      <stop offset="100%" stop-color="#f59e0b" />
    </linearGradient>
    <filter id="glow" x="-20%" y="-20%" width="140%" height="140%">
      <feGaussianBlur stdDeviation="3.5" result="b" />
      <feComposite in="SourceGraphic" in2="b" operator="over" />
    </filter>
  </defs>

  <rect width="400" height="240" rx="16" fill="#080e1c" />
  <rect width="400" height="240" rx="16" fill="url(#bgGlow)" />
  <rect x="0.5" y="0.5" width="399" height="239" rx="15.5" stroke="url(#borderGrad)" stroke-width="1" />

  <!-- Technical Grid Background -->
  <g stroke="rgba(255,255,255,0.03)" stroke-width="1">
    <line x1="50" y1="0" x2="50" y2="240" />
    <line x1="120" y1="0" x2="120" y2="240" />
    <line x1="200" y1="0" x2="200" y2="240" />
    <line x1="280" y1="0" x2="280" y2="240" />
    <line x1="350" y1="0" x2="350" y2="240" />
    <line x1="0" y1="60" x2="400" y2="60" />
    <line x1="0" y1="120" x2="400" y2="120" />
    <line x1="0" y1="180" x2="400" y2="180" />
  </g>

  <!-- Ambient Light Beam -->
  <circle cx="200" cy="120" r="85" fill="#ef4444" opacity="0.06" />

  
    <g transform="translate(140, 25)">
      <path d="M45 40 C45 25 75 25 75 40" stroke="#ef4444" stroke-width="4" fill="none" />
      <rect x="25" y="40" width="70" height="125" rx="24" fill="#991b1b" stroke="url(#accentGrad)" stroke-width="2.5" />
      <circle cx="60" cy="95" r="20" fill="#1b1e26" stroke="#f59e0b" stroke-width="2" />
      <path d="M60 82 C55 90 50 96 50 102 C50 108 55 112 60 112 C65 112 70 108 70 102 C70 96 65 90 60 82 Z" fill="#f59e0b" />
    </g>
</svg>