<svg xmlns="http://www.w3.org/2000/svg" viewBox="0 0 400 240" width="400" height="240" fill="none">
  <defs>
    <radialGradient id="bgGlow" cx="50%" cy="50%" r="65%">
      <stop offset="0%" stop-color="#10b981" stop-opacity="0.2" />
      <stop offset="100%" stop-color="#0f1115" stop-opacity="0" />
    </radialGradient>
    <linearGradient id="borderGrad" x1="0%" y1="0%" x2="100%" y2="100%">
      <stop offset="0%" stop-color="#10b981" stop-opacity="0.6" />
      <stop offset="50%" stop-color="rgba(255,255,255,0.08)" />
      <stop offset="100%" stop-color="#f59e0b" stop-opacity="0.35" />
    </linearGradient>
    <linearGradient id="accentGrad" x1="0%" y1="0%" x2="100%" y2="100%">
      <stop offset="0%" stop-color="#10b981" />
      <stop offset="100%" stop-color="#f59e0b" />
    </linearGradient>
    <filter id="glow" x="-20%" y="-20%" width="140%" height="140%">
      <feGaussianBlur stdDeviation="3.5" result="b" />
      <feComposite in="SourceGraphic" in2="b" operator="over" />
    </filter>
  </defs>

  <rect width="400" height="240" rx="16" fill="#080e1c" />
  <rect width="400" height="240" rx="16" fill="url(#bgGlow)" />
  <rect x="0.5" y="0.5" width="399" height="239" rx="15.5" stroke="url(#borderGrad)" stroke-width="1" />

  <!-- Technical Grid Background -->
  <g stroke="rgba(255,255,255,0.03)" stroke-width="1">
    <line x1="50" y1="0" x2="50" y2="240" />
    <line x1="120" y1="0" x2="120" y2="240" />
    <line x1="200" y1="0" x2="200" y2="240" />
    <line x1="280" y1="0" x2="280" y2="240" />
    <line x1="350" y1="0" x2="350" y2="240" />
    <line x1="0" y1="60" x2="400" y2="60" />
    <line x1="0" y1="120" x2="400" y2="120" />
    <line x1="0" y1="180" x2="400" y2="180" />
  </g>

  <!-- Ambient Light Beam -->
  <circle cx="200" cy="120" r="85" fill="#10b981" opacity="0.06" />

  
    <g transform="translate(130, 30)">
      <circle cx="70" cy="80" r="65" fill="rgba(16,185,129,0.1)" stroke="url(#accentGrad)" stroke-width="2" />
      <path d="M70 125 C70 85 45 65 35 60 C55 60 70 75 70 85 C70 75 85 60 105 60 C95 65 70 85 70 125 Z" fill="#10b981" />
      <circle cx="70" cy="50" r="14" fill="#f59e0b" stroke="#ffffff" stroke-width="2" />
      <text x="70" y="55" font-family="sans-serif" font-weight="900" font-size="14" fill="#000000" text-anchor="middle">₹</text>
    </g>
</svg>